<svg enable-background="new 0 0 442.11 306.77" viewBox="0 0 442.11 306.77" xmlns="http://www.w3.org/2000/svg"><g fill="#0d1313"><path d="m401 205.23v21.29l34.51-.13-.37-215.62h-36.76v92.17c-11.34-12.9-24.77-19.36-40.29-19.36-5.92 0-16.69 2.25-16.69 2.25l-34.96 107.67s6 11.31 10.12 15.97c11.38 12.86 25.05 19.29 41.01 19.29 7.85 0 15.63-1.94 23.35-5.82 7.72-3.87 14.41-9.78 20.08-17.71zm-57.81-19.88c-4.1-6.63-6.15-17.35-6.15-32.18 0-13.78 2.94-24.13 8.83-31.06s13.19-10.4 21.91-10.4c8.98 0 16.35 3.51 22.11 10.53s8.63 18.51 8.63 34.47c0 14.3-2.97 25.05-8.89 32.24-5.93 7.19-13.12 10.79-21.58 10.79-10.65 0-18.93-4.8-24.86-14.39z"/><path d="m64.96 81.2c-16.75 0-30.76 6.18-42.03 18.55s-16.9 30.26-16.9 53.67c0 18.68 4.3 34.29 12.89 46.83 10.96 15.88 25.83 23.81 44.6 23.81 16.84 0 30.78-7.54 41.83-22.63v20.39c0 8.24-.57 13.9-1.71 16.97-1.67 4.3-4.12 7.41-7.37 9.34-4.82 2.89-12.06 4.34-21.71 4.34-7.54 0-13.07-1.32-16.58-3.95-2.54-1.84-4.17-5.22-4.87-10.13l-42.23-5.13c-.09 1.75-.13 3.24-.13 4.47 0 12.45 4.95 22.74 14.87 30.85 9.91 8.11 26.71 12.17 50.39 12.17 12.54 0 22.91-1.32 31.11-3.95s14.75-6.27 19.67-10.92c4.91-4.65 8.73-11.05 11.45-19.21s4.08-20.48 4.08-36.97l-34.6-105.77c-11.23-15.14-25.49-22.73-42.76-22.73zm31.7 102.42c-6.23 7.06-13.86 10.59-22.89 10.59-8.42 0-15.5-3.44-21.25-10.33-5.75-6.88-8.62-17.74-8.62-32.56 0-14.12 2.87-24.62 8.62-31.51 5.74-6.88 13.04-10.33 21.9-10.33 9.12 0 16.66 3.51 22.63 10.52 5.96 7.02 8.95 17.76 8.95 32.23 0 13.87-3.11 24.33-9.34 31.39z"/><path d="m283.78 226.56 46.38-141.67h-11.8-25.87l-21.31 71.64-6.3 21.2-5.5-21.2-18.58-71.64h-11.81-25.05l-19.24 71.75-5.65 21.09-6.15-21.09-20.92-71.75h-11.81-25.32l45.7 141.67h11.8 13.53 11.8l18.63-69.33 5.86-21.78 5.95 21.78 18.94 69.33h11.8 13.12z"/><path d="m11.83 63.72c.73 1.43 1.55 2.57 2.48 3.44.92.87 1.86 1.53 2.81 2s1.88.78 2.78.93 1.68.22 2.36.22c1.95 0 3.64-.47 5.07-1.4s2.69-2.46 3.79-4.6l.94 5.46h5.79v-29.15h-12.96v5.73h4.48v7.51c0 1.39-.11 2.68-.32 3.87s-.54 2.22-.99 3.1-1.02 1.57-1.72 2.07c-.7.51-1.53.76-2.49.76-.92 0-1.71-.15-2.38-.45-.66-.3-1.21-.81-1.65-1.53s-.76-1.67-.98-2.86c-.21-1.19-.32-2.68-.32-4.48v-26.08c0-1.84.11-3.38.32-4.62.21-1.23.54-2.23.99-2.98s1.01-1.29 1.68-1.6 1.47-.47 2.39-.47c3.39 0 5.09 3.16 5.09 9.47v2.73h6.97c.25-1.26.44-2.41.59-3.45s.22-2.18.22-3.42c0-1.66-.22-3.23-.66-4.72-.44-1.48-1.16-2.78-2.16-3.89s-2.3-1.99-3.91-2.63-3.58-.96-5.91-.96c-.92 0-1.92.07-3 .2s-2.17.42-3.27.86-2.16 1.07-3.18 1.9-1.93 1.95-2.71 3.35c-.79 1.4-1.42 3.13-1.89 5.19s-.71 4.53-.71 7.43v20.38c0 2.88.22 5.35.67 7.43.47 2.08 1.06 3.83 1.79 5.26z"/><path d="m52.26 48.24h3.27l7.65 21.53h9.23l-9.23-23.01c2.45-1.21 4.3-3.19 5.56-5.95 1.26-2.75 1.89-6.32 1.89-10.7v-1.45c0-2.61-.28-4.82-.84-6.65s-1.31-3.35-2.24-4.57c-.93-1.21-2-2.17-3.2-2.86-1.2-.7-2.45-1.22-3.74-1.57s-2.58-.57-3.88-.66-2.48-.13-3.55-.13h-9.48v57.54h8.56zm0-29.65h1.31c1.59 0 2.92.17 3.98.51s1.9.85 2.54 1.55 1.1 1.58 1.36 2.66.4 2.36.4 3.84v4.55c0 1.93-.15 3.55-.44 4.87-.29 1.31-.76 2.37-1.42 3.17-.65.8-1.5 1.36-2.56 1.7s-2.35.51-3.87.51h-1.31v-23.36z"/><path d="m83.45 59.46h10.51l1.58 10.31h8.83l-10.64-57.55h-10.04l-10.61 57.55h8.86zm5.09-35.24h.37l4.04 28.67h-8.49z"/><path d="m116.45 52.25h.84c1.12 0 2.32-.07 3.59-.22s2.53-.45 3.77-.91c1.25-.46 2.45-1.14 3.61-2.04s2.17-2.09 3.05-3.59c.88-1.49 1.58-3.34 2.11-5.53s.79-4.82.79-7.9v-2.02c0-2.83-.29-5.23-.86-7.21s-1.33-3.62-2.27-4.94c-.94-1.31-2.03-2.35-3.25-3.12s-2.49-1.33-3.81-1.7c-1.31-.37-2.63-.61-3.94-.71s-2.52-.15-3.62-.15h-8.73v57.54h8.73v-17.5zm0-33.66h.44c1.64 0 3 .2 4.08.59s1.94.99 2.58 1.8 1.08 1.84 1.33 3.08c.25 1.25.37 2.72.37 4.43v5.19c0 2.16-.14 4-.42 5.54s-.74 2.8-1.38 3.77c-.64.98-1.5 1.7-2.58 2.16s-2.4.69-3.98.69h-.44z"/><path d="m147.33 43.18h10.34v26.59h8.73v-57.55h-8.73v24.09h-10.34v-24.09h-8.73v57.55h8.73z"/><path d="m174.1 12.22h8.73v57.54h-8.73z"/><path d="m191.28 63.7c.73 1.42 1.57 2.55 2.53 3.42.95.86 1.95 1.53 3 2 1.04.47 2.09.78 3.13.93s2.02.22 2.91.22c3.95-.02 6.99-1.13 9.1-3.33s3.17-5.62 3.17-10.24v-5.32h-7.98v5.62c0 1.15-.12 2.14-.35 2.98-.24.84-.55 1.54-.94 2.09s-.85.95-1.36 1.21c-.52.26-1.06.39-1.62.39-.88 0-1.62-.15-2.24-.45s-1.12-.81-1.5-1.53-.66-1.67-.83-2.86-.25-2.68-.25-4.48v-26.29c0-1.84.11-3.38.32-4.62.21-1.23.52-2.23.93-2.98.4-.75.91-1.29 1.52-1.6s1.31-.47 2.12-.47c1.35 0 2.37.79 3.07 2.36s1.04 3.94 1.04 7.11v2.93h7.08c.25-1.26.43-2.41.56-3.45.12-1.04.19-2.18.19-3.42 0-1.66-.2-3.23-.59-4.72s-1.06-2.78-1.99-3.89-2.17-1.99-3.71-2.63-3.45-.96-5.74-.96c-.88 0-1.83.07-2.85.2s-2.05.42-3.08.86-2.03 1.07-3 1.9-1.82 1.95-2.56 3.35-1.34 3.13-1.79 5.19-.67 4.53-.67 7.43v20.38c0 2.88.22 5.35.66 7.43.4 2.08.99 3.83 1.72 5.24z"/><path d="m233.37 66.57c1.3 1.21 2.85 2.14 4.65 2.78s3.77.96 5.93.96c1.86 0 3.69-.35 5.49-1.04 1.8-.7 3.5-1.66 5.12-2.9l1.89 3.37h9.03l-5.26-9.5c1.44-2.16 2.58-4.5 3.42-7.04s1.26-5.14 1.26-7.82c0-.67-.03-1.35-.08-2.04-.06-.69-.14-1.32-.25-1.9h-7.04c.04.61.08 1.23.1 1.87s.03 1.33.03 2.07c0 1.42-.11 2.8-.32 4.14-.21 1.35-.51 2.64-.89 3.88l-8.69-15.8.74-.84c.7-.81 1.56-1.79 2.59-2.95s2.03-2.47 2.98-3.94c.96-1.47 1.77-3.1 2.46-4.89s1.03-3.72 1.03-5.81c0-1.03-.18-2.15-.52-3.35-.35-1.2-.96-2.32-1.84-3.37-.88-1.04-2.06-1.92-3.55-2.61-1.49-.7-3.39-1.04-5.68-1.04-1.75 0-3.4.3-4.95.89-1.55.6-2.9 1.44-4.04 2.54s-2.06 2.44-2.73 4.01-1.01 3.34-1.01 5.29c0 1.26.12 2.52.37 3.79s.58 2.52.99 3.74c.42 1.22.89 2.42 1.43 3.59s1.1 2.28 1.68 3.33l1.15 2.06-.91.98c-.74.85-1.61 1.86-2.61 3.02s-1.95 2.45-2.85 3.88-1.66 2.98-2.29 4.67-.94 3.48-.94 5.39c0 2.29.36 4.33 1.08 6.12.72 1.75 1.73 3.25 3.03 4.47zm8.31-47.86c.3-.75.68-1.35 1.15-1.8.46-.45.97-.77 1.53-.96s1.1-.29 1.62-.29c.56 0 1.1.1 1.6.3.51.2.95.51 1.35.91.39.4.71.92.94 1.55.24.63.35 1.37.35 2.22 0 1.26-.18 2.43-.54 3.5s-.8 2.05-1.31 2.93c-.52.88-1.06 1.66-1.63 2.36s-1.08 1.3-1.53 1.82l-.57.61c-.61-1.17-1.13-2.22-1.57-3.15s-.79-1.81-1.06-2.63-.47-1.59-.59-2.33c-.12-.73-.19-1.48-.19-2.24-.01-1.11.14-2.05.45-2.8zm-2.68 30.49c.72-1.85 1.75-3.62 3.1-5.31l9.57 17.25c-.83.81-1.74 1.44-2.71 1.89-.98.45-2.03.67-3.15.67-1.37 0-2.56-.26-3.55-.79-1-.53-1.82-1.21-2.46-2.05s-1.11-1.8-1.42-2.86c-.3-1.07-.46-2.14-.46-3.22 0-1.87.36-3.73 1.08-5.58z"/><path d="m296.84 69.77 4.99-27.66 1.45-12.03h.67l1.49 12.03 4.75 27.66h8.86l8.05-57.55h-8.39l-3.54 34.77-.4 8.12h-.88l-.67-9.13-5.93-33.76h-6.98l-6.2 33.76-.8 9.13h-.85l-.43-8.12-3.88-34.77h-8.35l8.28 57.55z"/><path d="m352.75 62.89h-12.94v-19.71h9.74v-6.87h-9.74v-17.22h12.61v-6.87h-21.33v57.55h21.66z"/><path d="m370.79 69.55c1.55-.15 3.01-.42 4.38-.81s2.63-.94 3.77-1.63c1.15-.7 2.13-1.59 2.96-2.68s1.48-2.4 1.94-3.94.69-3.35.69-5.44v-2.93c0-3.41-.72-6.22-2.17-8.41s-3.6-3.54-6.45-4.06v-.27c.97-.22 1.91-.66 2.83-1.3s1.74-1.45 2.46-2.43 1.3-2.11 1.74-3.39.66-2.68.66-4.21v-2.8c0-2-.26-3.71-.79-5.14s-1.24-2.62-2.12-3.59c-.89-.97-1.93-1.74-3.12-2.31s-2.45-1.01-3.77-1.3c-1.33-.29-2.68-.48-4.08-.57s-2.74-.13-4.04-.13h-8.83v57.54h9.16c1.64.02 3.23-.06 4.78-.2zm-5.39-50.96h1.68c1.44 0 2.66.19 3.66.56s1.81.92 2.43 1.63 1.06 1.59 1.33 2.63.4 2.22.4 3.57v2.36c0 1.35-.19 2.5-.56 3.45-.37.96-.9 1.73-1.58 2.33-.69.59-1.51 1.03-2.48 1.31s-2.03.42-3.2.42h-1.68zm0 24.43h2.49c1.44 0 2.65.19 3.64.56s1.79.91 2.41 1.62 1.06 1.58 1.33 2.63c.27 1.04.4 2.24.4 3.59v4.48c0 1.35-.18 2.52-.56 3.5-.37.99-.9 1.8-1.58 2.44-.69.64-1.5 1.11-2.46 1.42-.96.3-2.02.46-3.18.46h-2.49z"/><path d="m292.28 247.21c-.93-1.49-2.01-2.66-3.24-3.49s-2.53-1.44-3.92-1.84-2.8-.64-4.25-.71-2.85-.12-4.2-.12h-8.93v56.71h8.93c1.35 0 2.75-.04 4.2-.12s2.87-.32 4.25-.71 2.69-1.01 3.92-1.84 2.31-1.99 3.24-3.47 1.67-3.36 2.21-5.64.81-5.06.81-8.33v-16.47c0-3.28-.27-6.05-.81-8.32s-1.28-4.15-2.21-5.65zm-5.98 31.13c0 2.66-.11 4.85-.33 6.59s-.62 3.11-1.21 4.12-1.38 1.71-2.39 2.11-2.29.6-3.83.6h-2.19v-44.43h2.19c1.55 0 2.83.2 3.83.6s1.8 1.1 2.39 2.11.99 2.38 1.21 4.12.33 3.93.33 6.59z"/><path d="m310.07 271.57h9.6v-6.77h-9.6v-16.97h12.42v-6.77h-21.02v56.71h21.35v-6.78h-12.75z"/><path d="m346.4 271.47-9.99-12.09c-.42-.55-.8-1.08-1.13-1.59s-.61-1.04-.85-1.58-.41-1.13-.53-1.78-.18-1.36-.18-2.16c0-1.5.4-2.71 1.2-3.6s2-1.34 3.62-1.34c1.95 0 3.35.8 4.22 2.41s1.29 3.91 1.29 6.92v2.69h6.64c.24-1.24.46-2.37.65-3.4s.28-2.15.28-3.37c0-1.44-.21-2.87-.61-4.3s-1.11-2.72-2.11-3.87-2.33-2.08-4-2.79-3.76-1.06-6.26-1.06c-2.06 0-3.9.32-5.53.95s-2.99 1.52-4.1 2.66-1.95 2.5-2.54 4.07-.88 3.3-.88 5.18c0 2.35.43 4.55 1.29 6.62s2.09 4.12 3.69 6.16l8.96 10.66c.8 1 1.45 1.9 1.96 2.71s.91 1.58 1.21 2.31.51 1.47.63 2.21.18 1.55.18 2.44c0 1.73-.43 3.04-1.29 3.93s-2.11 1.34-3.75 1.34c-1.04 0-1.92-.21-2.64-.61s-1.29-1.02-1.73-1.83-.74-1.8-.93-2.97-.28-2.52-.28-4.05v-2.76h-6.67c-.29 1.2-.5 2.31-.65 3.34s-.22 2.15-.22 3.37c0 1.5.21 2.98.61 4.42s1.12 2.72 2.12 3.85 2.36 2.04 4.05 2.72c1.69.69 3.82 1.03 6.39 1.03 2.08 0 3.95-.3 5.61-.91s3.08-1.48 4.25-2.61 2.08-2.5 2.71-4.12.95-3.43.95-5.45c0-2.43-.49-4.74-1.46-6.92-.98-2.19-2.37-4.46-4.18-6.83z"/><path d="m357.78 241.06h8.6v56.71h-8.6z"/><path d="m388.63 274.69h4.42v7.4c0 1.37-.11 2.65-.31 3.82-.21 1.17-.54 2.19-.98 3.05s-1.01 1.54-1.69 2.04c-.69.5-1.5.75-2.46.75-.91 0-1.69-.15-2.34-.45s-1.2-.8-1.63-1.51-.75-1.65-.96-2.82-.32-2.65-.32-4.42v-25.7c0-1.82.11-3.33.32-4.55s.54-2.2.98-2.94 1-1.27 1.66-1.58 1.45-.46 2.36-.46c3.34 0 5.01 3.11 5.01 9.33v2.69h6.87c.24-1.24.44-2.37.58-3.4s.21-2.15.21-3.37c0-1.64-.21-3.19-.65-4.65s-1.14-2.74-2.12-3.83c-.99-1.1-2.27-1.96-3.85-2.59s-3.53-.95-5.83-.95c-.91 0-1.89.07-2.96.2s-2.14.42-3.22.85-2.13 1.06-3.14 1.88-1.9 1.92-2.67 3.3-1.39 3.09-1.86 5.11-.7 4.47-.7 7.32v20.09c0 2.83.22 5.27.66 7.32s1.02 3.77 1.74 5.18 1.53 2.53 2.44 3.39c.91.85 1.83 1.51 2.77 1.98.94.46 1.85.77 2.74.91s1.66.22 2.32.22c1.93 0 3.59-.46 5-1.38 1.4-.92 2.65-2.43 3.73-4.53l.93 5.38h5.71v-28.72h-12.78v5.64z"/><path d="m427.87 241.06v20.69c0 2.19.03 4.16.1 5.91s.14 3.31.23 4.7c.09 1.38.19 2.62.3 3.7s.2 2.07.27 2.96h-.2l-13.75-37.95h-6.97v56.71h7.64v-16.68c0-2.88-.03-5.36-.1-7.45s-.14-3.92-.23-5.5c-.09-1.57-.19-2.94-.3-4.1s-.2-2.24-.27-3.24h.27l13.68 36.96h7.04v-56.71z"/></g></svg>